<?xml version="1.0" encoding="UTF-8" standalone="no"?>
<svg
   xmlns:dc="http://purl.org/dc/elements/1.1/"
   xmlns:cc="http://creativecommons.org/ns#"
   xmlns:rdf="http://www.w3.org/1999/02/22-rdf-syntax-ns#"
   xmlns:svg="http://www.w3.org/2000/svg"
   xmlns="http://www.w3.org/2000/svg"
   xmlns:sodipodi="http://sodipodi.sourceforge.net/DTD/sodipodi-0.dtd"
   xmlns:inkscape="http://www.inkscape.org/namespaces/inkscape"
   sodipodi:docname="li.svg"
   inkscape:version="1.0beta2 (2b71d25, 2019-12-03)"
   id="svg3051"
   version="1.1"
   viewBox="0 0 229.99202 19.638885"
   height="19.638885mm"
   width="229.99202mm">
  <defs
     id="defs3045" />
  <sodipodi:namedview
     inkscape:window-maximized="0"
     inkscape:window-y="23"
     inkscape:window-x="0"
     inkscape:window-height="730"
     inkscape:window-width="1280"
     showgrid="false"
     inkscape:document-rotation="0"
     inkscape:current-layer="layer1"
     inkscape:document-units="mm"
     inkscape:cy="142.82716"
     inkscape:cx="343.20202"
     inkscape:zoom="0.35"
     inkscape:pageshadow="2"
     inkscape:pageopacity="0.0"
     borderopacity="1.0"
     bordercolor="#666666"
     pagecolor="#ffffff"
     id="base" />
  <metadata
     id="metadata3048">
    <rdf:RDF>
      <cc:Work
         rdf:about="">
        <dc:format>image/svg+xml</dc:format>
        <dc:type
           rdf:resource="http://purl.org/dc/dcmitype/StillImage" />
        <dc:title></dc:title>
      </cc:Work>
    </rdf:RDF>
  </metadata>
  <g
     transform="translate(-15.027799,-110.37698)"
     id="layer1"
     inkscape:groupmode="layer"
     inkscape:label="Layer 1">
    <g
       id="g1197"
       transform="matrix(0.26458333,0,0,0.26458333,15.324869,111.19011)">
      <path
         inkscape:connector-curvature="0"
         id="path1193"
         fill="#000000"
         stroke-width="0"
         stroke="none"
         d="M 0.41442272,0.59887976 69.048339,1.5104148 69.758391,68.940205 1.7918313,70.011114" />
      <path
         inkscape:connector-curvature="0"
         id="path1195"
         fill="none"
         stroke-width="1"
         stroke="#000000"
         d="M -0.93058299,-0.1717321 C 22.509136,-0.36162842 46.687874,0.08084136 69.29085,-0.22597561 M -0.43656932,0.36230749 C 21.266943,1.3974456 40.745859,0.34841039 68.648983,0.19167295 M 69.797036,1.8788384 C 69.742865,22.245891 66.53673,45.14141 67.16087,68.025792 M 68.763531,-0.44035062 C 68.893607,14.161034 68.811573,28.487794 67.779729,68.974314 m -0.592394,0.540554 C 47.406728,67.02172 24.534939,70.136427 -1.0662572,67.22343 M 69.407942,68.42909 C 49.975059,68.581188 31.511,68.718892 0.72542165,69.351876 M 0.2329281,68.195889 C 0.74194687,52.257169 -0.6284299,33.33532 -0.45455717,-1.9293856 m 0.4417288,71.2146826 C -0.43227273,52.02638 -0.69283602,36.517191 0.34082724,0.07164151" />
    </g>
    <g
       id="g1209"
       transform="matrix(0.26458333,0,0,0.26458333,36.098489,111.20047)">
      <path
         inkscape:connector-curvature="0"
         id="path1205"
         fill="#330000"
         stroke-width="0"
         stroke="none"
         d="M 1.1014312,-0.81471107 69.605393,-0.9462922 70.05278,67.419954 1.7578638,70.365266" />
      <path
         inkscape:connector-curvature="0"
         id="path1207"
         fill="none"
         stroke-width="1"
         stroke="#000000"
         d="M -0.49764589,-1.8647726 C 15.966237,-1.1539171 29.290192,-0.41386218 68.193964,-0.01393163 M 0.45087683,0.27569274 C 18.830486,0.51498699 37.064102,1.0053297 69.188169,-0.7526993 M 67.22343,-0.6532992 C 69.6688,23.917399 70.843823,47.11884 68.064113,68.45829 M 69.351876,-0.45123832 C 68.870431,18.353466 68.71194,35.810954 68.988615,69.122799 m -2.394563,-1.97061 C 49.953095,67.050468 30.398894,69.891418 -0.53624902,67.247121 M 68.595079,68.730649 C 51.888597,69.019435 35.410083,69.374461 0.20838383,69.419353 m -0.52134956,-0.0645 C 1.4522889,43.779891 -0.06067998,17.607034 1.3348343,1.7865843 M 0.85257486,69.164402 C 0.31969829,47.03481 1.054428,25.88814 0.13968015,0.50051896" />
    </g>
    <g
       id="g1221"
       transform="matrix(0.26458333,0,0,0.26458333,57.075619,111.08321)">
      <path
         inkscape:connector-curvature="0"
         id="path1217"
         fill="#660000"
         stroke-width="0"
         stroke="none"
         d="M 1.2310579,0.39530667 70.371755,0.14313343 69.717048,69.298517 1.8487846,67.206366" />
      <path
         inkscape:connector-curvature="0"
         id="path1219"
         fill="none"
         stroke-width="1"
         stroke="#000000"
         d="M -0.43993566,-0.13424336 C 22.986286,-0.5202695 47.969417,-2.6541598 69.377325,1.98734 M 0.90138945,0.97026784 C 16.556541,-0.75446233 34.027339,0.47819662 68.716222,-0.10558953 M 67.31681,-1.1286969 C 69.707075,14.354863 68.341157,30.435413 67.79834,67.364413 M 67.71264,-0.04687299 C 68.200659,23.379786 68.733613,46.705108 69.370004,69.122064 m 0.276009,-0.737198 c -24.55138,2.123899 -44.705885,1.604209 -70.261364,0.530592 M 67.952976,67.800401 C 51.009441,67.761293 33.167622,68.530693 0.03292084,67.645315 M 1.3177559,69.918592 C 1.1953235,46.687712 -1.5730642,24.399404 -1.1620285,-0.27902138 M 0.43023229,68.266272 C 0.27142923,50.871937 -0.45199291,32.200546 0.10167119,-0.22989755" />
    </g>
    <g
       id="g1233"
       transform="matrix(0.26458333,0,0,0.26458333,78.119149,111.17647)">
      <path
         inkscape:connector-curvature="0"
         id="path1229"
         fill="#990000"
         stroke-width="0"
         stroke="none"
         d="M 0.53246876,-1.2004674 68.76147,-1.9339442 67.102007,66.66309 -0.83147857,68.221312" />
      <path
         inkscape:connector-curvature="0"
         id="path1231"
         fill="none"
         stroke-width="1"
         stroke="#000000"
         d="M -1.7097504,0.63804063 C 17.307811,-1.1739311 37.54071,-1.6893547 69.154284,-0.42269549 M 0.44333459,0.20406992 C 21.441494,0.60830917 42.314788,-0.28227491 67.888799,-0.61230513 M 68.759164,-1.2671612 C 69.288305,16.06139 69.132226,34.570997 67.780979,69.322762 M 68.721091,0.92415884 C 68.437471,21.850522 68.753443,43.431827 67.864902,68.349211 m 1.863502,1.097332 C 47.715647,70.295783 29.009903,67.598593 0.48411185,69.086601 M 68.2841,69.446108 C 46.574833,69.019815 25.098184,69.309378 0.39142404,68.953377 M -0.91097778,66.715249 C 1.3013919,50.836813 1.077263,33.955961 0.84809304,-1.7009422 M -0.26384868,68.283802 C -0.0735755,42.685395 0.2618657,13.977219 -0.43858587,-0.97830444" />
    </g>
    <g
       id="g1245"
       transform="matrix(0.26458333,0,0,0.26458333,99.008929,111.12074)">
      <path
         inkscape:connector-curvature="0"
         id="path1241"
         fill="#cc0000"
         stroke-width="0"
         stroke="none"
         d="M 0.44544566,-1.892432 66.937892,0.15165558 69.089891,67.787016 0.17469508,69.229651" />
      <path
         inkscape:connector-curvature="0"
         id="path1243"
         fill="none"
         stroke-width="1"
         stroke="#000000"
         d="M 1.6329633,0.77261115 C 18.238359,-0.94680841 37.377349,0.54363369 67.979875,1.7085981 M 0.66241291,-0.66620671 C 19.195701,0.72648275 39.543597,0.6246061 69.060289,0.377376 M 68.925678,0.52716202 C 67.265356,21.618197 68.563009,47.327585 70.269013,69.2076 M 69.130941,0.78593079 C 68.01553,24.778041 68.203424,49.373954 68.723827,67.541165 M 67.11812,68.464412 C 41.688444,68.602045 15.421391,67.407127 -1.7422544,68.160725 M 68.391288,67.53565 C 50.101156,68.910779 29.954673,68.274721 0.12446684,68.662235 M -0.093846,70.483226 C 0.45740639,48.943535 0.90605598,29.953715 -1.3014251,-1.089803 M 0.50714511,68.925022 C 1.0506281,53.660242 -0.48013467,40.093076 -0.64773473,-0.80308627" />
    </g>
    <g
       id="g1257"
       transform="matrix(0.26458333,0,0,0.26458333,120.48251,111.11181)">
      <path
         inkscape:connector-curvature="0"
         id="path1253"
         fill="#ff0000"
         stroke-width="0"
         stroke="none"
         d="M -1.6510114,0.02952344 69.649306,-1.2206427 66.880617,67.917197 0.18470635,68.483876" />
      <path
         inkscape:connector-curvature="0"
         id="path1255"
         fill="none"
         stroke-width="4"
         stroke="#000000"
         d="M 0.88607371,-0.33574561 C 24.773795,-1.1703412 46.04763,-0.79425861 69.354093,0.55538061 M -0.75052302,-0.49663329 C 22.234665,0.65739358 46.686357,-0.69441601 67.568761,0.82089326 m 1.936873,-1.21865148 C 68.90468,16.610476 68.887063,30.271568 70.352992,66.951767 M 69.165564,0.07307074 C 67.68581,26.985243 68.175075,53.311573 69.467923,67.785772 m 0.9856,-0.09722 C 46.204521,68.755629 24.831745,68.505365 -0.85694986,66.696734 M 69.278097,68.682855 C 49.902259,68.535293 33.21369,68.197248 0.66658918,69.449881 M 1.0387625,66.628819 C 1.4652621,44.683584 0.28901906,23.434296 0.60164726,-1.8849488 m -1.588515,71.3155378 c 0.14362581,-20.197706 0.24256913,-39.421746 0.12944105,-70.27438394" />
    </g>
    <g
       id="g1269"
       transform="matrix(0.26458333,0,0,0.26458333,142.21787,111.14821)">
      <path
         inkscape:connector-curvature="0"
         id="path1265"
         fill="#ff3333"
         stroke-width="0"
         stroke="none"
         d="M 1.7346491,1.2480263 67.999807,-0.18485109 69.576676,69.420016 -1.2556277,70.116522" />
      <path
         inkscape:connector-curvature="0"
         id="path1267"
         fill="none"
         stroke-width="1"
         stroke="#000000"
         d="M -0.83488337,-0.65503948 C 15.133649,-1.0252187 29.42795,-1.5182304 66.696734,-0.78855442 M 0.15941733,-0.76586987 C 20.188122,-0.1162493 39.342868,0.14947068 69.449881,0.33069803 M 66.628819,0.86526037 C 66.940701,14.246032 68.514502,29.715676 66.638489,68.161561 m 2.7921,-69.05758498 C 68.409342,19.23213 68.502481,39.200995 67.679643,67.697932 m -0.799026,0.219265 C 48.04996,68.065663 25.545195,67.740685 -0.67749879,68.97919 M 69.00301,67.963634 C 49.033481,68.769255 29.239736,67.258667 -0.46808734,69.479324 M -1.9012065,67.385965 C 1.2601208,50.771015 -0.01886593,30.867863 1.6711961,-1.6946158 M 0.52728471,69.083886 C -0.05847833,49.797452 -0.22604853,33.193587 -0.66008776,0.90366612" />
    </g>
    <g
       id="g1281"
       transform="matrix(0.26458333,0,0,0.26458333,163.15205,111.10941)">
      <path
         inkscape:connector-curvature="0"
         id="path1277"
         fill="#ff6666"
         stroke-width="0"
         stroke="none"
         d="M 0.77912232,1.013374 69.101538,1.4818931 68.983732,67.379556 -0.30360553,69.180789" />
      <path
         inkscape:connector-curvature="0"
         id="path1279"
         fill="none"
         stroke-width="1"
         stroke="#000000"
         d="M -1.6875899,-1.6510114 C 15.124684,1.7134063 28.969679,-1.0552826 67.917197,0.18470635 M -0.3387494,0.22787601 C 20.224383,-0.29930336 40.246146,0.60446985 67.963634,-0.28355214 M 67.587263,1.9117738 C 67.160982,24.406354 67.649282,48.186481 67.385965,69.565143 M 69.359036,-0.84730789 C 68.043086,20.400164 68.943364,42.883142 69.083886,67.932008 M 67.203262,70.33077 C 55.891567,69.987511 39.266768,68.554634 1.0532389,69.420016 M 69.47635,68.581028 C 52.230329,68.605345 36.519172,68.102351 0.49821029,67.632503 m -0.41550044,1.37832 C -0.80519252,49.326872 2.2537291,32.182498 0.53468228,1.6483115 M 0.85136042,68.542395 C -1.3673933,42.17237 -1.1888582,16.054393 0.03402985,0.65505976" />
    </g>
    <g
       id="g1293"
       transform="matrix(0.26458333,0,0,0.26458333,183.92315,111.06522)">
      <path
         inkscape:connector-curvature="0"
         id="path1289"
         fill="#ff9999"
         stroke-width="0"
         stroke="none"
         d="M 0.9573175,-1.3271642 68.981906,-1.2545134 67.905324,67.543973 0.27365085,69.923581" />
      <path
         inkscape:connector-curvature="0"
         id="path1291"
         fill="none"
         stroke-width="1"
         stroke="#000000"
         d="M 0.08270985,0.48738506 C 16.914797,-0.29980875 38.324344,0.90644162 69.05812,1.6483115 M 0.85136042,0.01895735 C 25.27475,-0.22511636 51.637819,-0.15855952 68.557467,0.65505976 M 70.005331,0.46029409 C 67.726755,22.922833 69.527988,45.472859 70.123691,70.338469 M 69.389614,-0.80576783 C 69.751017,25.546644 68.296479,50.925487 69.250213,68.706924 m 0.58462,-1.829925 C 54.956657,68.335267 38.751522,68.111826 1.2054566,69.119945 M 69.384354,67.814098 C 54.142803,67.109893 40.79021,68.827239 -0.05511384,68.123271 M 1.1673464,69.499769 C 0.77733631,51.75284 1.8463345,31.843522 1.9054077,-0.06335161 M -0.74129324,67.557478 c 0.37415896,-25.451273 0.28387709,-52.701371 1.6389139,-68.51058693" />
    </g>
    <g
       id="g1305"
       transform="matrix(0.26458333,0,0,0.26458333,205.18677,111.09936)">
      <path
         inkscape:connector-curvature="0"
         id="path1301"
         fill="#ffcccc"
         stroke-width="0"
         stroke="none"
         d="M -1.1972907,1.5808935 67.831767,0.37267757 70.042429,67.764748 1.3069489,68.254969" />
      <path
         inkscape:connector-curvature="0"
         id="path1303"
         fill="none"
         stroke-width="1"
         stroke="#000000"
         d="M 1.5522852,-1.6411115 C 25.807517,-0.31990497 49.7588,1.3184877 69.328528,-1.4825865 M 0.08221997,0.84019178 C 14.835566,-1.5263272 28.354549,-1.2368004 68.752672,-0.62725672 M 69.923581,-1.6697646 C 66.980187,19.025269 67.111332,35.979239 66.674256,66.670426 M 69.080599,0.7539033 C 67.983451,25.298756 67.843129,50.734999 68.234431,67.91277 m 2.273907,1.73599 C 45.212609,68.204381 22.03273,69.460323 -1.4013821,70.406028 M 69.466648,68.240105 C 52.203317,68.23569 37.774045,68.926799 0.91199659,69.510607 M -1.5758297,69.648995 C -0.54062159,51.415519 -0.89403058,33.679383 -1.8374116,-1.6971048 M -0.33162453,68.675962 C 0.66220121,51.618234 0.8160056,34.60125 -0.42236589,-0.02396053" />
    </g>
    <g
       id="g1317"
       transform="matrix(0.26458333,0,0,0.26458333,226.39499,111.154)">
      <path
         inkscape:connector-curvature="0"
         id="path1313"
         fill="#fff"
         stroke-width="0"
         stroke="none"
         d="M -1.919953,1.950455 66.934615,1.936657 68.89431,66.899427 -0.5963488,70.170614" />
      <path
         inkscape:connector-curvature="0"
         id="path1315"
         fill="none"
         stroke-width="1"
         stroke="#000000"
         d="M -1.4013821,1.8825908 C 19.660077,0.51717044 42.55754,1.3998353 67.956772,-1.5288018 M 0.91199659,0.98716983 C 17.51401,0.30486336 34.912758,-0.98967523 69.086216,-0.09673279 M 66.686026,-1.6971048 C 67.387997,24.3451 69.705076,48.829529 68.828487,69.572863 M 68.101072,-0.02396053 C 68.389735,24.112871 68.642545,46.831188 69.282933,68.144093 m 1.071943,1.735061 C 45.273563,67.958404 18.358211,66.848389 -1.6168541,69.360816 M 69.130056,68.613967 C 44.143318,67.883151 20.410406,68.821677 0.18140657,69.199962 M -1.4940146,66.943948 C 0.99694855,43.821224 1.4182187,18.906472 -1.7225746,1.5992797 M -0.91776721,68.982222 C 0.09440451,52.578628 -0.44502363,35.298449 -0.67707338,0.99100992" />
    </g>
  </g>
</svg>
