<svg height="666.66669" viewBox="0 0 666.66669 666.66669" width="666.66669" xmlns="http://www.w3.org/2000/svg" xmlns:xlink="http://www.w3.org/1999/xlink"><clipPath id="a"><path d="m0 500h500v-500h-500z"/></clipPath><clipPath id="b"><path d="m0 500h500v-500h-500z"/></clipPath><clipPath id="c"><path d="m0 500h500v-500h-500z"/></clipPath><clipPath id="d"><path d="m0 500h500v-500h-500z"/></clipPath><clipPath id="e"><path d="m0 500h500v-500h-500z"/></clipPath><g transform="matrix(1.3333333 0 0 -1.3333333 0 666.66667)"><path d="m0 0h500v500h-500z" fill="#1a1d1d"/><g clip-path="url(#a)"><path d="m0 0c3.261 18.449 8.313 49.468-6.782 83.239-15.147 33.889-47.778 64.278-88.573 70.761-10.837 1.723-40.897 6.5-64.017-11.639-14.981-11.753-19.22-29.945-27.756-66.256-8.392-35.697-15.973-67.948-4.692-103.789 2.545-8.087 6.12-16.332 13.269-32.824 9.139-21.082 17.66-38.026 23.713-49.524 26.411-17.158 47.097-17.261 57.245-16.213 56.834 5.871 89.324 79.458 97.593 126.245" fill="#b39a89" transform="translate(377.8159 260.615)"/></g><g clip-path="url(#b)"><path d="m0 0c-3.72 5.427-10.765 17.286-12.338 34.03-1.941 20.662 5.631 36.182 8.757 41.857 3.666 8.165 9.022 22.951 8.953 42.057-.054 15.014-3.437 27.054-6.267 34.743 3.507-1.887 13.168-6.46 25.309-4.347 20.277 3.529 29.329 22.545 30.202 24.462 16.81-.815 51.464-4.819 87.745-27.429 32.576-20.301 51.135-46.05 59.988-60.343 3.595-9.169 7.169-20.203 9.849-32.915 3.464-16.427 4.475-31.097 4.477-42.972-1.629-8.321-4.135-17.952-8.058-28.343-5.477-14.506-12.106-26.229-18.033-35.127.861 4.286 13.8 74.269-32.098 118.163-27.016 25.836-61.402 30.187-80.493 32.603-22.48 2.844-30.819-1.006-33.321-2.269-16.686-8.418-23.754-27.835-34.421-58.349-5.122-14.653-8.304-27.149-10.251-35.821" fill="#303736" transform="translate(185.919 315.0902)"/></g><g clip-path="url(#c)"><path d="m0 0c-10.05-25.222-7.637-30.161-5.813-32.619 3.284-4.423 10.278-6.697 14.096-4.52 3.262 1.859 1.677 5.524 5.119 14.126.619 1.55 4.106 10.014 11.953 17.224 3.642 3.347 4.949 3.039 7.163 5.372 11.372 11.985 11.562 35.081 3.581 39.396-5.446 2.944-14.021-3.222-17.012-5.372-3.131-2.252-8.394-6.772-19.087-33.607" fill="#b39a89" transform="translate(375.2838 256.2477)"/></g><g clip-path="url(#d)"><path d="m0 0c-2.874 2.683-5.668 5.476-8.38 8.38-11.58 27.8-23.16 55.599-34.74 83.398 4.355 5.567 11.314 14.616 19.519 26.04 29.158 40.6 31.102 51.386 46.558 60.74 9.772 5.915 13.451 4.3 52.826 9.849 11.995 1.691 21.118 3.175 28.586 4.496 19.246 3.406 30.575 5.544 36.137 6.548 16.806 3.032 38.822 1.861 82.168-.604 52.207-2.969 54.444-2.799 65.647-5.587 10.72-2.668 22.563-7.197 46.25-16.254 29.148-11.147 43.722-16.72 48.666-20.667 16.331-13.038 18.615-28.519 32.667-77.333 5.163-17.936 13.028-44.236 23.757-76.357-125.364-45.695-333.64-101.629-439.661-2.649" fill="#2db2a2" transform="translate(31.7627 -70.6724)"/></g><g clip-path="url(#e)"><path d="m0 0c-2.249-9.253-12.611-14.071-17.012-16.116-33.762-15.696-79.874 8.303-88.495 12.965-53.85 29.118-79.145 80.352-77.592 81.75.149.135.8.037 2.694.491.966.232 1.964.533 2.224.618.784.253 1.176.38 1.26.408 2.155.736 7.393 2.524 10.475 3.492 1.708.536 7.495 2.352 13.502 5.121 7.324 3.376 12.711 5.94 16.528 11.64 1.845 2.754 2.762 5.402 3.247 7.21 2.905-2.433 5.81-4.867 8.715-7.3 7.045-5.453 20.383-14.04 38.678-15.622 2.464-.213 5.729-.481 9.768-.13 31.044 2.695 50.52 22.356 50.305 27.186-.014.316.045.943-.137.994-.678.189-4.076-7.698-5.501-15.395-1.166-6.297-.755-11.085-.333-16 .384-4.485 1.419-15.528 6.604-25.8 1.05-2.079 3.397-6.386 5.372-9.849 4.731-8.294 7.202-12.203 8.954-15.221 7.434-12.807 12.788-22.031 10.744-30.442" fill="#b39a89" transform="translate(352.6744 49.6882)"/></g></g></svg>