<svg xmlns="http://www.w3.org/2000/svg" viewBox="0 0 156 302.4" width="200">
    <path fill="#b28b67" d="M68.6 53.5a18.4 18.4 0 0 1-4.9-13.2c1-14.6 21.2-11.4 25.2-4 3.9 7.4 3.4 26-1.7 27.3-2 .5-6.3-.8-10.8-3.4l2.8 19.6H63l5.6-26.3z"/>
    <path fill="#191847" d="M67.3 56.7c-2-9-7.7-15.3-7-19.4a6 6 0 0 1 4.7-5c1.4-5.4 5.6-7.7 12.9-6.9 10.8 1.2 17.5 5.7 14.6 15.7-2.6 0-5.8-1-10.1.6-1.4.6-2.5 2.2-3 4.9h-2c-1.9-3.3-3.8-4.4-5.7-3.6-1.8.9-2.3 2.9-1.2 6.2l-1 7.5h-2.2z"/>
    <path fill="#997659" d="M57.1 130.7l22.5 77.6 10.7 58.3h10.6L90.3 130.7H57.1z"/>
    <path fill="#b28b67" d="M46.9 130.7c1.2 22 1.4 44 .6 66-.4 3.7-2.3 28.2-16 71.2h11.1C60.7 226.7 67 202.2 69 196.7a834 834 0 0 0 17-66H46.9z"/>
    <path fill="#69a1ac" d="M56.6 130.7c9.7 42.8 19.8 85.4 30.4 127.9h15.5c1.2-60.1-3.7-99.6-12.2-127.9H56.6z"/>
    <path fill="#89c5cc" d="M46.9 130.7c1.5 40.3-2.5 80.1-14.8 128.5h16.6c18.5-41 31.9-84.2 39.7-128.5H46.9z"/>
    <path fill="#191847" d="M30 275.9l.6-9.8c3.6 1 8 .6 13.4-1.2 6.6 4.4 14 7.2 21.8 8.4.7.1 1.1.7 1 1.4v.2l-.8 3H31.2l-1.2-2zm57.8 0l.6-9.8c3.6 1 8 .6 13.4-1.2 6.6 4.4 14 7.2 21.8 8.4.7.1 1.1.7 1 1.4v.2l-.8 3H89l-1.2-2z"/>
    <path fill="#b28b67" d="M109.2 122.8l19.6 14.4c4.7 1.2 9.2 3 13.3 5.4.8.8 1.8 2.3-1.7 2.1-3.5-.2-7.2-.4-7.7.8s1.7 2.6.7 4.2c-.6 1-3.7-1.7-9.2-8.1l-19.4-8 4.4-10.8zm-75.3.5l12.9.1c-4.1 13.6-8.5 27.2-12.9 40.8-1.4 3.5 1.7 9 2.9 11.8-4.2 1.8-3.8-5.1-9-2.6-4.9 2.3-8.5 6.3-14.1 2.9-.6-.4-1.4-2 .4-3.3A53.5 53.5 0 0 0 26 162.7c1.2-2.5 3.8-15.6 7.9-39.4z"/>
    <path fill="#2155ff" d="M70.4 69.4l5.3-.9c19.7 17.1 27.9 49.8 52 67.2l-5.8 7.2c-42-5.2-52.4-45.1-51.5-73.5z"/>
    <path fill="#dde3e9" d="M47.2 136.3h47.1c2.2 0 1.7-3.1 1.4-4.7-3.6-18.1-17.6-37.5-17.6-63.4l-13.5-2.1c-11.3 18.1-15.2 40.3-17.4 70.2z"/>
    <path fill="#2179ff" d="M47.6 83.9a8 8 0 0 1-4.7-4C38 71 39.7 66 45.1 64.4c5.3-1.6 10 1.7 18.5 1.7l1.2.1 4.3.2c12.2 41.3 15.6 68.9 10.1 82.7h-37c-2.2 5.1-4.3 9.4-6.3 12.9H25.7c-.9-30.7 6.3-56.7 21.9-78.1z"/>
    <path fill-opacity=".1" d="M50.2 127.9a57.9 57.9 0 0 0 5.7 21.2H42.1c2.5-5.9 5.2-13 8.1-21.2z"/>
</svg>
