<svg xmlns="http://www.w3.org/2000/svg" width="308" height="339" version="1">
  <g fill="none" fill-rule="evenodd">
    <path fill="#B28B67" d="M103 36c-3-6-3-14 0-20 10-20 36-4 37 8s-10 37-17 36c-3 0-9-4-13-10l-7 28-22-9 22-33z"/>
    <path fill="#191847" d="M99 40c2-13-2-25 1-30 3-4 6-5 10-4 4-7 11-8 21-3 14 8 21 18 11 30-3-2-7-5-14-5-2 0-5 2-7 5l-3-1c0-6-2-8-5-8s-5 3-6 8l-5 9-3-1z"/>
    <path fill="#B28B67" d="M259 328a520 520 0 0 1-65-98c-7-16 17-24 23-16 8 11 26 47 53 107l-11 7z"/>
    <path fill="#69A1AC" d="M219 321l-37-92c-8-17 30-28 36-20 13 17 44 88 48 93l-47 19z"/>
    <path fill="#B28B67" d="M121 302a651 651 0 0 1 59-71c11-12 34 7 22 17-27 25-68 59-71 62-5 5-14-1-10-8z"/>
    <path fill="#191847" d="M115 306l8-13c5 4 11 8 20 9 5 11 13 21 24 30a2 2 0 0 1 0 3l-3 3-31-18-18-10v-4zM248 336l1-16c6 2 13 1 22-2 9 7 21 11 35 14a2 2 0 0 1 2 2l-1 5h-57l-2-3z"/>
    <path fill="#C5CFD6" d="M28 209h77l10 124H0z"/>
    <path fill="none" d="M28 209h23l15 124H0z"/>
    <path fill="#89C5CC" d="M169 233l-61-10c-30-5-39-21-33-56h54l90 39c10 5 8 19 6 23l-48 83-45-29 37-46v-4z"/>
    <g>
      <path fill="#B28B67" d="M175 73l-19 5-9-33c-9-10-13-15-11-16 3-1 5 2 7 2 2-1 2-7 3-13 0-5 2-3 3-2 3 6 5 14 6 23l20 34zM50 155h21l-21 66c-2 6 3 15 5 20-7 3-6-9-15-5-8 4-14 11-23 5-1-1-2-3 1-5 7-5 18-14 19-17 2-4 7-25 13-64z"/>
      <path fill="#2155FF" d="M175 145c-10 2-9-2-8-13 1-18-5-18-15-68l15-4c25 23 36 75 29 80-9 4-4 3-21 5z"/>
      <path fill="#2155FF" d="M97 66l8-4c21 10 37 28 55 45 11 10 23 21 36 29 6 3-10 19-19 17-50-6-70-49-80-87z"/>
      <path fill="#DDE3E9" d="M72 176h77c3 0 2-5 2-8-6-29-29-61-29-103l-22-3c-18 29-24 66-28 114z"/>
      <path fill="#2179FF" d="M73 91c-4-1-6-3-8-7-8-14-5-22 3-25 9-2 17 3 31 3h2l6 1c20 67 26 112 17 134H64l-11 21H37c-2-50 10-92 36-127z"/>
      <path fill="none" d="M77 162c2 16 5 28 9 35H64l13-35z"/>
    </g>
  </g>
</svg>
