<?xml version="1.0" encoding="UTF-8" standalone="no"?>
<svg
   xmlns:dc="http://purl.org/dc/elements/1.1/"
   xmlns:cc="http://creativecommons.org/ns#"
   xmlns:rdf="http://www.w3.org/1999/02/22-rdf-syntax-ns#"
   xmlns:svg="http://www.w3.org/2000/svg"
   xmlns="http://www.w3.org/2000/svg"
   xmlns:sodipodi="http://sodipodi.sourceforge.net/DTD/sodipodi-0.dtd"
   xmlns:inkscape="http://www.inkscape.org/namespaces/inkscape"
   sodipodi:docname="grayscale.svg"
   inkscape:version="1.0beta2 (2b71d25, 2019-12-03)"
   id="svg3058"
   version="1.1"
   viewBox="0 0 230.146 19.226768"
   height="19.226768mm"
   width="230.146mm">
  <defs
     id="defs3052" />
  <sodipodi:namedview
     inkscape:window-maximized="0"
     inkscape:window-y="23"
     inkscape:window-x="0"
     inkscape:window-height="705"
     inkscape:window-width="1280"
     showgrid="false"
     inkscape:document-rotation="0"
     inkscape:current-layer="layer1"
     inkscape:document-units="mm"
     inkscape:cy="170.61975"
     inkscape:cx="214.92159"
     inkscape:zoom="0.35"
     inkscape:pageshadow="2"
     inkscape:pageopacity="0.0"
     borderopacity="1.0"
     bordercolor="#666666"
     pagecolor="#ffffff"
     id="base" />
  <metadata
     id="metadata3055">
    <rdf:RDF>
      <cc:Work
         rdf:about="">
        <dc:format>image/svg+xml</dc:format>
        <dc:type
           rdf:resource="http://purl.org/dc/dcmitype/StillImage" />
        <dc:title></dc:title>
      </cc:Work>
    </rdf:RDF>
  </metadata>
  <g
     transform="translate(-48.968663,-103.02352)"
     id="layer1"
     inkscape:groupmode="layer"
     inkscape:label="Layer 1">
    <g
       transform="matrix(0.26458333,0,0,0.26458333,70.557638,103.76021)"
       id="g1341">
      <path
         d="M -0.29566287,0.05739197 66.891017,1.4197588 69.701481,69.883774 0.80351681,67.08341"
         stroke="none"
         stroke-width="0"
         fill="#1a1a1a"
         id="path1337"
         inkscape:connector-curvature="0" />
      <path
         d="M 1.3608902,-0.47039711 C 28.504993,-1.4195016 53.970409,-1.9519896 68.675579,0.04133064 M 0.19104192,-0.21550851 C 16.5642,-0.74492866 34.247755,-0.4408395 68.708149,0.19245599 M 70.044081,-1.0379021 C 68.327168,21.666464 67.433945,41.722948 70.232757,67.084854 M 69.028632,0.24888371 C 67.95948,14.824807 68.615401,29.013627 67.847866,67.998688 m 2.460408,0.375845 C 49.474109,69.085906 29.910598,69.475724 0.89345976,68.719586 M 68.277366,68.386651 C 46.239511,68.570491 25.368438,68.4643 -0.17357003,68.124322 m 0.83930905,0.287546 C -1.8127965,45.023551 -0.95565767,25.473557 -0.14840362,0.40884221 M -0.31352055,68.573068 C -0.36603996,51.011585 -0.18744259,32.191965 0.60694561,-0.1286103"
         stroke="#000000"
         stroke-width="1"
         fill="none"
         id="path1339"
         inkscape:connector-curvature="0" />
    </g>
    <g
       transform="matrix(0.26458333,0,0,0.26458333,91.722197,103.59863)"
       id="g1353">
      <path
         d="M 1.178044,1.3603365 69.326954,-1.4400278 68.94108,68.560841 1.5124264,66.860197"
         stroke="none"
         stroke-width="0"
         fill="#333333"
         id="path1349"
         inkscape:connector-curvature="0" />
      <path
         d="M -0.1172894,-1.6766143 C 19.097512,0.43332795 36.962118,-1.1082429 70.428689,0.38208384 M -0.50307199,0.21193231 C 19.265004,0.25560503 38.203646,0.60845555 69.014266,0.76032154 M 67.060282,0.01876301 C 70.037489,15.562417 66.4819,32.748839 69.125145,69.533827 M 69.044756,0.55083434 C 67.755631,21.737718 68.247831,44.977136 68.659935,69.415856 m -0.148329,-0.03366 C 49.370037,68.880251 28.694802,68.59668 -0.01103131,68.031294 M 68.298954,68.46808 C 48.730144,68.159154 29.56719,68.896769 -0.33961731,68.856307 m -0.38408957,1.612478 C 0.39322128,48.757505 -0.23597947,28.433012 0.11641302,-0.6270411 M -0.09866267,67.977615 C 0.79693371,47.497709 0.04215667,26.757898 -0.81621036,0.70987941"
         stroke="#000000"
         stroke-width="1"
         fill="none"
         id="path1351"
         inkscape:connector-curvature="0" />
    </g>
    <g
       transform="matrix(0.26458333,0,0,0.26458333,112.84084,103.84379)"
       id="g1365">
      <path
         d="M 0.41764284,0.03740367 70.035864,-1.6632406 70.234169,67.238496 -1.4212192,68.853148"
         stroke="none"
         stroke-width="0"
         fill="#4d4d4d"
         id="path1361"
         inkscape:connector-curvature="0" />
      <path
         d="M -0.92862174,-1.5002402 C 16.717914,0.36792325 29.194308,-1.6365878 68.339124,-1.006144 M 0.04305992,0.54530652 C 22.500092,0.62844408 43.499578,-0.41684344 68.930623,-0.73157777 M 66.677168,-1.2531623 C 69.710787,21.631706 69.606847,40.973428 69.710259,69.566074 M 68.340066,0.4521998 C 68.19701,25.223956 67.98606,48.788662 68.757905,68.517522 m 0.03062,-0.08151 C 45.013138,68.098497 21.251327,66.953304 0.10166665,68.07447 M 68.806637,68.861936 C 48.006119,68.582819 28.112251,67.459527 -0.50113654,68.161584 M -0.77760438,68.78256 C 0.16725865,40.674272 0.150107,13.524668 0.76194408,-0.19732534 M -0.14783144,68.552133 C -1.2321104,52.416448 0.17312199,35.569869 0.40175841,-0.7200139"
         stroke="#000000"
         stroke-width="1"
         fill="none"
         id="path1363"
         inkscape:connector-curvature="0" />
    </g>
    <g
       transform="matrix(0.26458333,0,0,0.26458333,133.78973,103.83807)"
       id="g1377">
      <path
         d="M 1.7107314,-1.2849417 67.102218,0.32971015 67.962095,67.949453 1.1808026,67.048102"
         stroke="none"
         stroke-width="0"
         fill="#666666"
         id="path1373"
         inkscape:connector-curvature="0" />
      <path
         d="M -0.43101702,-1.6224272 C 15.232637,-1.1370525 31.257766,0.23851383 68.908349,0.08611984 M -0.51895103,-0.28496598 C 24.700845,-1.2525762 48.596699,0.33366129 67.804146,-0.92313452 m 1.217059,0.65392913 C 69.916414,17.306118 69.831261,31.17582 67.473938,68.156694 M 68.448985,0.12558751 C 68.851438,23.649744 69.046347,47.758049 68.621512,68.65598 M 68.249865,66.8861 C 48.3676,67.905853 27.897714,68.007681 -0.79823152,69.089837 M 68.467653,67.733015 c -23.321891,0.656663 -44.72462,0.944314 -68.26323189,0.40162 M 0.09926137,67.968917 C 0.72205898,46.881282 -1.1315299,26.847668 -0.2572206,-0.29566287 M 0.58902198,69.203606 C 0.9610538,47.049758 0.76811681,27.034807 0.75621322,-0.83162032"
         stroke="#000000"
         stroke-width="1"
         fill="none"
         id="path1375"
         inkscape:connector-curvature="0" />
    </g>
    <g
       transform="matrix(0.26458333,0,0,0.26458333,154.97865,103.69435)"
       id="g1389">
      <path
         d="M -0.56134271,-0.57398478 69.70424,-1.4753356 68.599956,70.132677 -0.40953546,67.83715"
         stroke="none"
         stroke-width="0"
         fill="#808080"
         id="path1385"
         inkscape:connector-curvature="0" />
      <path
         d="M 0.42386463,0.36942232 C 15.383229,0.43084206 31.087247,1.3263783 70.044081,-1.0379021 M 0.00938151,0.85465975 C 17.885055,-0.42183229 36.582112,0.80215586 69.028632,0.24888371 M 69.625106,-1.3511435 C 67.880564,19.267943 69.834462,39.542371 70.308274,68.374533 M 68.952814,0.44672988 C 68.782177,21.550142 68.640391,42.829684 68.277366,68.386651 m 0.135356,-0.210354 C 52.777973,68.936013 39.305968,67.690379 0.66573902,68.411868 M 69.496111,68.449236 C 53.587076,67.886681 38.371434,68.33369 -0.31352055,68.573068 M -1.0916448,69.737329 C -0.51827574,49.570624 -0.20366317,29.576716 1.4197588,1.178044 M 0.20882142,68.542139 c 0.27209313,-26.0681 0.37124561,-51.096728 -0.919431,-68.37728392"
         stroke="#000000"
         stroke-width="2"
         fill="none"
         id="path1387"
         inkscape:connector-curvature="0" />
    </g>
    <g
       transform="matrix(0.26458333,0,0,0.26458333,176.45992,103.47373)"
       id="g1401">
      <path
         d="M 0.07651818,1.6092393 68.113902,-0.68628797 68.716599,68.633383 -0.82651084,68.01863"
         stroke="none"
         stroke-width="0"
         fill="#999999"
         id="path1397"
         inkscape:connector-curvature="0" />
      <path
         d="M 1.090613,0.98165608 C 23.343379,-1.0674082 43.075539,0.78486557 67.060282,0.01876301 M -0.62658116,0.30085362 C 26.918648,0.88144721 52.692305,1.2259741 69.044756,0.55083434 M 69.427837,0.27299589 C 69.948698,15.778877 68.415036,32.324498 68.511606,69.382191 M 68.479726,-0.00551565 C 68.344569,23.481392 67.771973,47.287189 68.298954,68.46808 m 0.90148,-0.623877 C 49.821507,68.605926 28.207252,67.715223 -0.72370688,70.468785 M 68.652999,68.581644 C 48.161342,68.306648 28.149028,68.637989 -0.09866267,67.977615 M 0.05739197,66.891017 C 1.507887,44.98545 1.4484647,19.894892 -1.4400278,0.41764284 M 0.8553657,67.880967 C -1.2287929,48.00311 -0.79885465,26.86608 0.59040132,-0.73766779"
         stroke="#000000"
         stroke-width="1"
         fill="none"
         id="path1399"
         inkscape:connector-curvature="0" />
    </g>
    <g
       transform="matrix(0.26458333,0,0,0.26458333,197.66512,103.78536)"
       id="g1413">
      <path
         d="M 0.19316173,0.10994538 67.696927,-0.50480721 68.974623,67.703036 -1.6106508,68.797134"
         stroke="none"
         stroke-width="0"
         fill="#b2b2b2"
         id="path1409"
         inkscape:connector-curvature="0" />
      <path
         d="M -0.56993196,0.81437171 C 22.457198,0.37436609 49.550027,-1.08298 66.677168,-1.2531623 M -0.13460269,0.59341056 C 23.139902,0.38029067 44.561596,-0.69529318 68.340066,0.4521998 m 0.434547,0.0167357 c 0.348508,21.8821805 1.2538,42.7119365 0.01391,67.9670785 M 67.704769,0.05083333 C 68.130337,20.463878 68.181251,40.639356 68.806637,68.861936 M 66.942592,67.521164 C 49.569874,70.430559 31.91532,68.894054 -0.77760438,68.78256 M 68.246177,68.90441 C 47.468893,68.011624 27.218619,68.428836 -0.14783144,68.552133 M 1.3603365,69.326954 C -1.9264616,53.977003 -0.44903011,40.107709 -1.6632406,1.7107314 M -0.28067136,68.236445 C 1.0773354,51.63117 0.5251932,37.018857 -0.20476773,-0.34314399"
         stroke="#000000"
         stroke-width="1"
         fill="none"
         id="path1411"
         inkscape:connector-curvature="0" />
    </g>
    <g
       transform="matrix(0.26458333,0,0,0.26458333,218.58734,103.71307)"
       id="g1425">
      <path
         d="M 0.45118559,-0.8204017 66.912787,0.27369657 68.130375,66.99935 -1.2087328,69.783501"
         stroke="none"
         stroke-width="0"
         fill="#cccccc"
         id="path1421"
         inkscape:connector-curvature="0" />
      <path
         d="M 1.7093195,-1.4385831 C 21.50094,-1.2595908 47.296125,1.0039607 69.021205,-0.26920539 M -0.67557177,-0.52474951 C 24.439912,0.07474917 49.383067,0.51496771 68.448985,0.12558751 m 0.967912,0.0705606 C 68.784469,22.076262 68.508352,43.835226 68.249865,66.8861 M 68.349867,-0.39911576 C 68.652813,21.243857 68.029996,42.143587 68.467653,67.733015 m -0.09262,1.199265 C 50.622762,69.44907 34.393708,68.562906 0.09926137,67.968917 M 69.130383,68.394827 C 45.208023,68.178117 21.372062,68.859301 0.58902198,69.203606 M 0.03740367,70.035864 C -1.1698624,46.924151 -0.79156343,20.482182 0.32971015,-0.56134271 M 0.03825909,69.328057 C -0.60933101,49.589833 -0.30798242,31.397489 -0.41325542,-0.2524036"
         stroke="#000000"
         stroke-width="1"
         fill="none"
         id="path1423"
         inkscape:connector-curvature="0" />
    </g>
    <g
       transform="matrix(0.26458333,0,0,0.26458333,239.71081,103.66683)"
       id="g1437">
      <path
         d="M -0.39306259,-1.5240871 67.314705,1.2600632 69.033952,67.586292 -0.97378402,66.99482"
         stroke="none"
         stroke-width="0"
         fill="#e5e5e5"
         id="path1433"
         inkscape:connector-curvature="0" />
      <path
         d="M 0.60170724,1.0103892 C 16.125966,0.16014956 32.443218,1.4719913 69.625106,-1.3511435 M 0.13649795,0.89241834 C 16.886815,-0.18427534 34.157002,-0.31577883 68.952814,0.44672988 M 68.512406,-0.4921438 C 68.340687,19.591731 68.715927,42.009169 68.412722,68.176297 M 68.18382,0.33286951 C 68.661711,17.03173 68.216359,35.282452 69.496111,68.449236 m -0.85626,-0.55284 C 46.664904,68.057697 25.369792,68.414892 -1.0916448,69.737329 M 67.707227,69.233317 C 49.43671,69.223269 29.573697,67.823087 0.20882142,68.542139 M -1.2849417,67.102218 C 0.89956498,42.223231 -0.00412994,18.226512 -1.4753356,0.07651818 M 0.09658087,68.57841 C -0.27294153,42.200472 0.36590668,15.972113 -0.80532542,0.13684828"
         stroke="#000000"
         stroke-width="1"
         fill="none"
         id="path1435"
         inkscape:connector-curvature="0" />
    </g>
    <g
       transform="matrix(0.26458333,0,0,0.26458333,260.67328,103.7469)"
       id="g1449">
      <path
         d="M 0.51051486,-0.93714598 67.549653,-1.5286175 68.629203,69.934074 0.83491809,66.854432"
         stroke="none"
         stroke-width="0"
         fill="#fff"
         id="path1445"
         inkscape:connector-curvature="0" />
      <path
         d="M 1.1868211,1.0426364 C 25.120467,-1.2589091 46.988098,-0.27450952 69.427837,0.27299589 M 0.23446778,-0.00591599 C 27.101565,0.36067301 53.442451,0.04648557 68.479726,-0.00551565 m 0.145378,-0.44345186 C 68.318991,18.523722 67.631475,38.308124 69.200434,67.844203 M 68.022301,-0.36185344 C 69.457885,22.763766 68.689633,45.287133 68.652999,68.581644 m 0.632383,-0.255532 C 49.023112,69.547341 31.448856,68.037787 0.05739197,66.891017 M 68.925196,67.803424 C 43.31089,69.008214 18.436913,68.157892 0.8553657,67.880967 M -0.57398478,69.70424 C -1.5882999,52.912266 1.4962749,36.738522 -0.68628797,0.19316173 M 0.22559279,68.113237 C -0.5221486,47.726563 0.08664553,25.893948 -0.60436639,0.6300316"
         stroke="#000000"
         stroke-width="1"
         fill="none"
         id="path1447"
         inkscape:connector-curvature="0" />
    </g>
    <g
       transform="matrix(0.26458333,0,0,0.26458333,49.518871,103.74448)"
       id="g1329">
      <path
         d="M -0.19732534,-1.0916448 69.737329,-0.2572206 68.227775,68.580829 -1.6324207,69.943196"
         stroke="none"
         stroke-width="0"
         fill="#000000"
         id="path1325"
         inkscape:connector-curvature="0" />
      <path
         d="M -0.72992287,1.8933137 C 25.096684,1.1611902 51.267677,-0.11294747 69.984581,-1.1441262 M 0.02066532,-0.46431087 C 19.405058,0.90049919 40.501397,-0.26763494 67.712224,-0.09215685 m 1.196125,0.17827669 C 69.759274,18.091465 70.189304,33.181716 67.953506,69.337809 M 67.804146,-0.92313452 C 67.903285,15.844863 69.035061,31.336901 68.388835,69.116848 M 67.473938,68.156694 C 45.298554,68.333508 22.049709,67.911608 0.25117501,68.992373 M 68.621512,68.65598 C 47.963233,68.824037 27.24438,68.69277 -0.81866854,68.57427 m 0.020437,0.515566 C 0.71493,48.825411 0.70367205,30.374285 -1.5808457,-1.0022731 M 0.20442111,68.134635 C -0.53694797,50.504157 -0.98002991,32.418094 -0.27726003,0.38097204"
         stroke="#000000"
         stroke-width="1"
         fill="none"
         id="path1327"
         inkscape:connector-curvature="0" />
    </g>
  </g>
</svg>
