<?xml version="1.0" encoding="UTF-8" standalone="no"?>
<svg
   xmlns:dc="http://purl.org/dc/elements/1.1/"
   xmlns:cc="http://creativecommons.org/ns#"
   xmlns:rdf="http://www.w3.org/1999/02/22-rdf-syntax-ns#"
   xmlns:svg="http://www.w3.org/2000/svg"
   xmlns="http://www.w3.org/2000/svg"
   xmlns:sodipodi="http://sodipodi.sourceforge.net/DTD/sodipodi-0.dtd"
   xmlns:inkscape="http://www.inkscape.org/namespaces/inkscape"
   sodipodi:docname="primary-hues.svg"
   inkscape:version="1.0beta2 (2b71d25, 2019-12-03)"
   id="svg1679"
   version="1.1"
   viewBox="0 0 148.1774 19.985834"
   height="19.985834mm"
   width="148.1774mm">
  <defs
     id="defs1673" />
  <sodipodi:namedview
     inkscape:window-maximized="0"
     inkscape:window-y="23"
     inkscape:window-x="0"
     inkscape:window-height="705"
     inkscape:window-width="1280"
     showgrid="false"
     inkscape:document-rotation="0"
     inkscape:current-layer="layer1"
     inkscape:document-units="mm"
     inkscape:cy="177.34393"
     inkscape:cx="310.06693"
     inkscape:zoom="1.1393422"
     inkscape:pageshadow="2"
     inkscape:pageopacity="0.0"
     borderopacity="1.0"
     bordercolor="#666666"
     pagecolor="#ffffff"
     id="base" />
  <metadata
     id="metadata1676">
    <rdf:RDF>
      <cc:Work
         rdf:about="">
        <dc:format>image/svg+xml</dc:format>
        <dc:type
           rdf:resource="http://purl.org/dc/dcmitype/StillImage" />
        <dc:title></dc:title>
      </cc:Work>
    </rdf:RDF>
  </metadata>
  <g
     transform="translate(-12.84582,-31.584463)"
     id="layer1"
     inkscape:groupmode="layer"
     inkscape:label="Layer 1">
    <g
       id="g2154"
       transform="matrix(0.26458333,0,0,0.26458333,-115.83194,7.4487004)">
      <g
         id="g1097"
         transform="translate(490.32196,94.935547)">
        <path
           id="path1093"
           fill="#ff0000"
           stroke-width="0"
           stroke="none"
           d="M -1.574798,-1.0753841 66.658762,-1.7624551 69.053296,69.325687 1.3912145,67.83925"
           inkscape:connector-curvature="0" />
        <path
           id="path1095"
           fill="none"
           stroke-width="4"
           stroke="#000000"
           d="M 1.3346788,-1.7208665 C 21.914192,0.01811813 42.063902,-1.0236307 68.610147,1.5573905 M 0.52478917,0.09786272 C 23.21458,0.38637931 47.384303,0.2682657 67.87968,-0.82883528 M 68.326996,1.5682409 C 68.509901,13.813811 68.301961,32.082842 67.21276,68.831752 M 68.339336,-0.75103524 C 69.426327,16.29457 69.35902,31.276061 68.292292,68.911045 M 69.765318,67.33331 C 45.854178,66.942087 22.909597,67.974187 -1.0726667,69.829207 M 69.303211,68.95211 C 52.542972,68.373715 36.280305,69.598957 0.23072736,67.96368 M -1.9632092,70.451843 C -2.1781952,50.197532 -0.35433139,29.603524 0.20937098,-1.4536023 M -0.82159432,69.34423 C 1.0670428,43.48292 0.70951179,18.570129 -0.24126368,-0.03888023"
           inkscape:connector-curvature="0" />
      </g>
      <g
         id="g1131"
         transform="translate(517.89336,117.25592)">
        <text
           id="text1129"
           direction="ltr"
           style="white-space:pre"
           text-anchor="middle"
           fill="#000000"
           font-size="20px"
           font-family="Cascadia"
           y="19"
           x="6"><tspan
             id="tspan2348"
             style="font-style:normal;font-variant:normal;font-weight:normal;font-stretch:normal;font-family:'Cascadia Code';-inkscape-font-specification:'Cascadia Code'">0</tspan></text>
      </g>
    </g>
    <g
       id="g2175"
       transform="matrix(0.26458333,0,0,0.26458333,-115.63599,7.1822684)">
      <g
         id="g1103"
         transform="translate(571.20477,95.873047)">
        <path
           id="path1099"
           fill="#ffff00"
           stroke-width="0"
           stroke="none"
           d="M -1.0753841,-1.8646757 66.760982,0.52985855 69.325687,69.914652 -0.68418741,70.11313"
           inkscape:connector-curvature="0" />
        <path
           id="path1101"
           fill="none"
           stroke-width="1"
           stroke="#000000"
           d="M -1.7208665,0.05428309 C 21.270544,-2.1132003 41.200396,-0.37057432 70.080828,0.79564989 M 0.09786272,-0.06848438 C 16.690498,0.45857032 33.072565,-1.0033613 67.694602,-0.70760565 m 2.397076,1.26433962 C 66.315307,15.203116 68.876065,28.397966 68.831752,67.179698 M 67.772402,0.77790685 C 69.107571,22.517459 68.135912,43.382574 68.911045,68.737431 M 67.33331,67.877565 C 49.324637,67.381861 32.059213,67.87626 1.3057693,67.31566 M 68.95211,68.961949 C 49.560137,69.652586 32.417496,69.288492 -0.55975708,68.489387 M 1.9284057,66.593376 C 2.2365001,45.378872 1.9661994,22.656073 -1.4536023,1.1609928 M 0.82079259,69.002472 C -0.55673278,53.967989 -0.93473122,38.928268 -0.03888023,-0.78739901"
           inkscape:connector-curvature="0" />
      </g>
      <g
         id="g1135"
         transform="translate(594.019,118.2629)">
        <text
           id="text1133"
           direction="ltr"
           style="white-space:pre;-inkscape-font-specification:'Cascadia Code';font-family:'Cascadia Code';font-weight:normal;font-style:normal;font-stretch:normal;font-variant:normal;"
           text-anchor="middle"
           fill="#000000"
           font-size="20px"
           font-family="Cascadia"
           y="19"
           x="11.5">60</text>
      </g>
    </g>
    <g
       id="g2161"
       transform="matrix(0.26458333,0,0,0.26458333,-116.02379,6.7325494)">
      <g
         id="g1109"
         transform="translate(654.2243,97.353516)">
        <path
           id="path1105"
           fill="#00ff00"
           stroke-width="0"
           stroke="none"
           d="M -1.8646757,-1.7624551 69.053296,0.80224962 69.914652,67.83925 1.5896924,68.567113"
           inkscape:connector-curvature="0" />
        <path
           id="path1107"
           fill="none"
           stroke-width="1"
           stroke="#000000"
           d="M 0.05428309,0.29894438 C 21.709377,-0.15320601 46.817297,2.1469889 69.319087,-1.1840768 M -0.06848438,0.19031754 C 19.414587,0.00514503 36.549069,-0.89589418 67.815832,-0.83222758 M 69.080171,-1.8944636 C 68.804928,18.086658 67.145456,35.149043 67.179698,68.888226 M 69.301344,0.34142053 C 69.107885,22.353925 68.16614,46.355935 68.737431,68.193695 M 67.877565,67.62216 c -14.6775,0.624342 -27.939405,1.799289 -69.0853427,0.262329 M 68.961949,67.92802 C 44.104276,69.447002 18.726198,68.257421 -0.03405021,68.885552 M -1.9300616,70.521239 C 0.56643145,52.08089 0.88200019,30.729738 1.1609928,-1.7162241 M 0.47903491,68.017712 C 0.6844886,46.57261 0.32172099,26.35035 -0.78739901,-0.53769204"
           inkscape:connector-curvature="0" />
      </g>
      <g
         id="g1139"
         transform="translate(669.78038,119.96751)">
        <text
           id="text1137"
           direction="ltr"
           style="white-space:pre"
           text-anchor="middle"
           fill="#000000"
           font-size="20px"
           font-family="Cascadia"
           y="19"
           x="17.5"><tspan
             id="tspan2350"
             style="font-style:normal;font-variant:normal;font-weight:normal;font-stretch:normal;font-family:'Cascadia Code';-inkscape-font-specification:'Cascadia Code'">120</tspan></text>
      </g>
    </g>
    <g
       id="g2168"
       transform="matrix(0.26458333,0,0,0.26458333,-116.45715,7.0361574)">
      <g
         id="g1115"
         transform="translate(736.57977,96.466797)">
        <path
           id="path1111"
           fill="#00ffff"
           stroke-width="0"
           stroke="none"
           d="M -1.7624551,0.52985855 69.325687,1.3912145 67.83925,70.11313 0.04367573,68.794421"
           inkscape:connector-curvature="0" />
        <path
           id="path1113"
           fill="none"
           stroke-width="1"
           stroke="#000000"
           d="M 0.29894438,-1.6559164 C 24.387066,0.06811125 51.817131,0.77705157 67.339361,-0.57224732 M 0.19031754,0.8181739 C 24.225271,-0.59682986 47.477299,-0.66067779 67.69121,-0.45775099 M 66.628974,0.34879464 C 69.727038,18.573312 69.369058,38.424238 68.888226,69.231847 M 68.864858,0.71059994 C 67.378564,19.064361 68.39641,38.805006 68.193695,67.53097 M 67.62216,66.956371 C 43.842333,67.229484 20.205353,67.094373 -0.63894883,69.824292 M 67.92802,69.118259 C 43.252957,69.054648 16.163071,68.789871 0.36211497,68.175092 M 1.9978019,68.41724 C 1.0667963,54.902069 -2.1143073,42.022952 -1.7162241,0.14887524 M -0.50572556,68.644941 c -0.94043374,-15.289952 -0.09559,-30.763272 -0.0319665,-69.57727887"
           inkscape:connector-curvature="0" />
      </g>
      <g
         id="g1143"
         transform="translate(752.11893,118.82001)">
        <text
           id="text1141"
           direction="ltr"
           style="white-space:pre"
           text-anchor="middle"
           fill="#000000"
           font-size="20px"
           font-family="Cascadia"
           y="19"
           x="17.5"><tspan
             id="tspan2352"
             style="font-style:normal;font-variant:normal;font-weight:normal;font-stretch:normal;font-family:'Cascadia Code';-inkscape-font-specification:'Cascadia Code'">180</tspan></text>
      </g>
    </g>
    <g
       id="g2196"
       transform="matrix(0.26458333,0,0,0.26458333,-116.06543,7.3220254)">
      <g
         id="g1121"
         transform="translate(815.07977,95.029297)">
        <path
           id="path1117"
           fill="#0000ff"
           stroke-width="0"
           stroke="none"
           d="M 0.52985855,0.80224962 69.914652,-0.68418741 70.11313,68.567113 0.27098324,69.155578"
           inkscape:connector-curvature="0" />
        <path
           id="path1119"
           fill="none"
           stroke-width="1"
           stroke="#000000"
           d="M -1.6559164,-0.74280444 C 14.747756,1.454967 30.117744,-1.2865003 67.95119,1.0495783 M 0.8181739,0.07220394 C 20.583863,-0.9592474 41.747635,-0.96263971 68.065687,-0.09822079 m 0.806545,0.76451503 C 67.403507,26.238409 67.370445,52.224977 69.231847,68.155235 m 0.0022,-68.78547326 C 68.825341,15.798287 69.270479,30.491617 67.53097,69.144378 M 66.956371,68.65426 C 50.971321,69.520414 34.35676,67.575695 1.3008547,70.082984 M 69.118259,69.153261 C 45.259724,67.55568 21.500505,68.477552 -0.34834542,67.541833 m 0.24214765,2.709106 C 0.87064324,39.905755 1.8222651,12.479052 0.14887524,-1.6431886 M 0.12150393,67.639713 C -0.56951486,42.303173 -1.1156502,15.622977 -0.93233787,-0.88122755"
           inkscape:connector-curvature="0" />
      </g>
      <g
         id="g1147"
         transform="translate(831.65799,117.73957)">
        <text
           id="text1145"
           direction="ltr"
           style="white-space:pre"
           text-anchor="middle"
           fill="#fff"
           font-size="20px"
           font-family="Cascadia"
           y="19"
           x="17.5"><tspan
             id="tspan2354"
             style="font-style:normal;font-variant:normal;font-weight:normal;font-stretch:normal;font-family:'Cascadia Code';-inkscape-font-specification:'Cascadia Code'">240</tspan></text>
      </g>
    </g>
    <g
       id="g2189"
       transform="matrix(0.26458333,0,0,0.26458333,-116.24091,7.2477344)">
      <g
         id="g1127"
         transform="translate(896.89227,95.482422)">
        <path
           id="path1123"
           fill="#ff00ff"
           stroke-width="0"
           stroke="none"
           d="M 0.80224962,1.3912145 67.83925,1.5896924 68.567113,68.794421 0.63214028,66.567106"
           inkscape:connector-curvature="0" />
        <path
           id="path1125"
           fill="none"
           stroke-width="1"
           stroke="#000000"
           d="M -0.74280444,0.08670956 C 22.300405,1.3629953 40.301952,-0.00490189 69.573016,0.19572545 M 0.07220394,-0.64375772 C 19.258917,-1.2682465 39.343278,-1.0183919 68.425217,0.78412045 M 69.189732,-1.310677 C 68.182676,21.120758 68.23915,45.637404 68.155235,67.021367 M 67.893199,-0.23114525 C 69.144998,26.10151 68.427648,50.782566 69.144378,67.928374 M 68.65426,67.450771 C 51.485045,66.778756 31.196165,69.287388 1.5595463,69.380782 M 69.153261,68.754165 C 44.401815,68.896979 21.761822,68.582684 -0.9816046,69.48764 M 1.7275012,68.732808 C -2.1380836,55.740122 -2.4007053,40.783696 -1.6431886,1.6415852 M -0.883724,68.282174 C 0.30766031,43.896495 -0.1911515,19.912013 -0.881228,0.26492928"
           inkscape:connector-curvature="0" />
      </g>
      <g
         id="g1151"
         transform="translate(912.84854,118.02035)">
        <text
           id="text1149"
           direction="ltr"
           style="white-space:pre"
           text-anchor="middle"
           fill="#000000"
           font-size="20px"
           font-family="Cascadia"
           y="19"
           x="17.5"><tspan
             id="tspan2356"
             style="font-style:normal;font-variant:normal;font-weight:normal;font-stretch:normal;font-family:'Cascadia Code';-inkscape-font-specification:'Cascadia Code'">300</tspan></text>
      </g>
    </g>
    <g
       id="g2182"
       transform="matrix(0.26458333,0,0,0.26458333,-115.83196,7.3818274)">
      <g
         id="g1157"
         transform="translate(975.52475,94.160156)">
        <path
           id="path1153"
           fill="none"
           stroke-width="0.5"
           stroke="#ff0000"
           d="M 0,0 C 0,0 0,0 0,0 M 0,0 C 0,0 0,0 0,0 M -0.35417396,6.0488548 C 1.2578023,4.6944265 2.8472419,3.0488838 4.3214137,0.70175109 M -0.30018437,6.5804776 C 1.0809036,4.4859081 3.4988352,2.361806 5.271277,0.3528225 M -0.68954852,11.783575 C 4.1650403,6.0989559 9.4295354,3.9408485 12.158326,-0.12791338 M -0.35573246,11.81852 C 3.1362745,8.8065357 6.3197699,6.0434586 11.192246,-0.17862655 M -0.98522624,18.304618 C 1.8189255,12.312832 7.7481851,9.6915381 16.250453,0.65600765 M -0.40763788,19.072245 C 5.5541946,13.115608 9.4410938,6.4743808 15.803369,-0.53581743 M 1.8912019,24.165139 C 5.2984269,17.399972 14.108742,9.1693269 23.054944,-1.0213857 M 0.1708575,23.422718 C 4.7730165,17.90385 11.06619,12.669583 20.938353,-0.94517629 M -1.679069,30.802853 C 7.274341,22.088221 12.77055,15.645658 26.050492,1.2150701 M 0.78254384,31.314283 C 7.938039,21.771141 16.912553,12.095837 26.99224,0.37457496 M 1.4781478,35.992772 C 10.811874,25.240721 22.955786,8.423384 32.139608,-0.28033558 M -0.77958745,36.854809 C 7.4095606,27.83288 16.630477,17.900056 31.362323,-0.6247707 M 1.2186792,40.984521 C 14.0386,25.051075 27.946999,9.8203608 38.844709,1.7776344 M 1.0460097,42.055486 C 12.822935,28.642539 25.020048,13.567995 37.808961,1.2119884 M 0.17431591,47.703962 C 13.271075,33.082149 31.046285,16.145339 43.619086,0.50498797 M 0.09000902,48.126203 C 14.405496,31.703976 28.997313,16.298531 43.172809,0.2370358 M -1.5922747,54.407728 C 15.178642,36.390448 32.140803,19.059492 48.660937,-0.17631897 M 0.51337497,54.223831 C 11.090021,41.980287 21.229097,29.807609 46.595085,1.0684638 M -1.7735208,60.6584 C 14.581723,46.604823 24.199526,30.257525 54.224335,1.3614404 M 0.02764062,60.521151 C 15.400773,43.097694 29.327164,27.222892 52.234801,0.58384673 M 0.83796727,66.97904 C 21.656658,44.251352 37.733662,24.438603 59.433258,1.4269405 M -0.04392919,66.955133 C 13.529297,50.989742 27.164855,35.766372 58.489038,0.98916736 M 0.41189679,69.790688 C 28.315781,44.332441 50.561905,15.908198 63.592561,-2.0903729 M 1.7024122,70.258191 C 15.738631,55.092037 27.519293,40.908754 64.710166,-0.18760941 M 8.2064386,70.878127 C 30.673028,46.673553 52.352382,22.025205 67.002004,-0.74510669 M 8.2832889,70.517686 C 29.462864,46.926384 49.633816,21.278108 68.426124,0.97238995 M 12.006491,71.346211 C 30.975581,50.852946 45.931127,30.547827 70.362691,6.1562898 M 12.172717,71.226017 C 25.716339,55.899534 38.646243,40.248486 68.153112,5.5649071 M 18.027065,69.23673 C 32.327014,54.517433 50.571458,34.801642 70.616812,10.644123 M 18.611738,69.991228 C 27.867865,58.300537 38.597467,47.390012 69.641576,13.044901 m -44.5385,58.477521 C 37.166904,55.454003 48.488023,40.636823 67.296549,17.400115 M 24.204465,70.624771 C 38.933732,51.268502 54.032964,33.254237 69.631372,17.634956 M 30.000318,69.006795 C 38.017148,58.84566 47.476432,52.904503 70.427459,23.374257 M 29.635298,71.135078 C 37.882659,60.52776 45.647327,51.222335 68.161392,24.035888 M 32.229485,69.299304 C 44.821666,58.244489 51.331592,47.384589 67.342506,28.759991 M 34.889208,70.796493 C 47.4649,56.588514 60.004054,40.553881 68.789849,31.495673 M 39.357153,71.715176 C 48.550365,63.169865 54.968786,55.450522 69.336968,38.648736 M 39.968958,70.142839 C 50.360348,58.60573 62.555464,45.527836 67.655439,37.557727 M 43.819799,72.250586 C 50.74928,63.216409 58.598079,58.948047 69.762768,42.231522 M 44.115376,70.036349 C 54.192251,60.599949 62.865024,50.747216 68.97791,42.356287 M 52.234779,70.482479 C 55.011482,64.626374 60.732136,59.706214 68.122789,50.00062 M 50.524584,69.661239 c 4.726485,-6.017246 10.904134,-12.335082 19.034055,-19.74945 m -15.344288,20.63196 c 3.565211,-3.439257 7.97507,-11.873524 16.511442,-17.139683 M 55.56827,69.592631 c 4.04642,-3.935655 6.720405,-6.280733 13.273524,-14.71348 m -8.673997,16.402147 c 4.864569,-3.615479 7.040269,-7.441804 7.843359,-9.743932 m -6.742801,8.404175 c 1.389923,-1.503504 2.474992,-3.051016 7.123301,-8.526665 m -2.146488,9.196139 c 0.313146,-0.750873 0.924518,-2.022724 2.29749,-3.359988 m -2.683421,3.305334 c 1.2397,-1.344468 2.106174,-2.249457 2.687087,-3.161531"
           inkscape:connector-curvature="0" />
        <path
           id="path1155"
           stroke-dasharray="12 8"
           fill="none"
           stroke-width="1.5"
           stroke="#000000"
           d="M 1.5797409,-0.32671999 C 26.162272,0.37574691 49.434891,-1.589736 67.607538,0.62430448 m 1.083205,-0.63034741 C 68.297063,21.287731 67.603277,39.382067 67.361152,67.860152 m 2.466541,2.401137 C 52.716439,68.59424 37.987716,69.799352 0.69590857,68.726052 M 1.5767348,67.088334 C -2.2609663,45.427685 -1.2200099,23.498324 1.1408269,0.8546392"
           inkscape:connector-curvature="0" />
      </g>
      <g
         id="g1161"
         transform="translate(992.33857,117.51354)">
        <text
           id="text1159"
           direction="ltr"
           style="white-space:pre"
           text-anchor="middle"
           fill="#000000"
           font-size="20px"
           font-family="Cascadia"
           y="19"
           x="17.5"><tspan
             id="tspan2358"
             style="font-style:normal;font-variant:normal;font-weight:normal;font-stretch:normal;font-family:'Cascadia Code';-inkscape-font-specification:'Cascadia Code'">360</tspan></text>
      </g>
    </g>
  </g>
</svg>
