<?xml version="1.0" encoding="UTF-8" standalone="no"?>
<svg
   xmlns:dc="http://purl.org/dc/elements/1.1/"
   xmlns:cc="http://creativecommons.org/ns#"
   xmlns:rdf="http://www.w3.org/1999/02/22-rdf-syntax-ns#"
   xmlns:svg="http://www.w3.org/2000/svg"
   xmlns="http://www.w3.org/2000/svg"
   xmlns:sodipodi="http://sodipodi.sourceforge.net/DTD/sodipodi-0.dtd"
   xmlns:inkscape="http://www.inkscape.org/namespaces/inkscape"
   sodipodi:docname="drawing.svg"
   inkscape:version="1.0beta2 (2b71d25, 2019-12-03)"
   id="svg1579"
   version="1.1"
   viewBox="0 0 230.44756 19.777184"
   height="19.777184mm"
   width="230.44756mm">
  <defs
     id="defs1573" />
  <sodipodi:namedview
     inkscape:window-maximized="0"
     inkscape:window-y="23"
     inkscape:window-x="0"
     inkscape:window-height="730"
     inkscape:window-width="1280"
     showgrid="false"
     inkscape:document-rotation="0"
     inkscape:current-layer="layer1"
     inkscape:document-units="mm"
     inkscape:cy="83.088488"
     inkscape:cx="424.06288"
     inkscape:zoom="0.35"
     inkscape:pageshadow="2"
     inkscape:pageopacity="0.0"
     borderopacity="1.0"
     bordercolor="#666666"
     pagecolor="#ffffff"
     id="base" />
  <metadata
     id="metadata1576">
    <rdf:RDF>
      <cc:Work
         rdf:about="">
        <dc:format>image/svg+xml</dc:format>
        <dc:type
           rdf:resource="http://purl.org/dc/dcmitype/StillImage" />
        <dc:title></dc:title>
      </cc:Work>
    </rdf:RDF>
  </metadata>
  <g
     transform="translate(6.3666374,-126.18284)"
     id="layer1"
     inkscape:groupmode="layer"
     inkscape:label="Layer 1">
    <g
       id="g1203"
       transform="matrix(0.26458333,0,0,0.26458333,-5.8135271,127.0096)">
      <path
         inkscape:connector-curvature="0"
         id="path1199"
         fill="#808080"
         stroke-width="0"
         stroke="none"
         d="M 1.1425096,-1.9198106 69.347465,0.65371122 67.81793,68.970361 1.4365326,67.386767" />
      <path
         inkscape:connector-curvature="0"
         id="path1201"
         fill="none"
         stroke-width="1"
         stroke="#000000"
         d="M -1.4735626,1.6609898 C 26.067715,1.5506162 49.247568,-0.91879583 67.921613,1.3267893 M -0.21564051,0.816831 C 24.765889,-0.15677981 51.841569,1.1007872 69.349633,-0.74094279 m -2.713541,0.68207242 C 66.485232,21.697873 69.3548,38.788301 68.835797,70.410463 M 68.156063,0.44648163 C 68.928964,22.230803 68.672087,45.11673 67.719324,69.176287 m 1.285038,-1.951518 C 49.909507,68.75572 31.676005,68.541378 1.8553365,67.472184 m 66.2105865,0.377848 c -16.499118,0.734237 -32.62192,0.68272 -67.89190491,0.700522 M -1.5010158,68.988899 C -0.01694523,42.533084 0.42256434,15.248723 -1.5953899,0.93230367 M -0.88330608,68.455492 C 0.38711073,51.051857 0.13179199,32.640514 0.59283367,0.67412258" />
    </g>
    <g
       id="g1215"
       transform="matrix(0.26458333,0,0,0.26458333,15.141452,127.05042)">
      <path
         inkscape:connector-curvature="0"
         id="path1211"
         fill="#8c7373"
         stroke-width="0"
         stroke="none"
         d="M -1.9198106,0.82402796 69.177149,-0.70550751 68.970361,69.95997 -1.1366708,68.287074" />
      <path
         inkscape:connector-curvature="0"
         id="path1213"
         fill="none"
         stroke-width="1"
         stroke="#000000"
         d="M 1.6609898,1.63704 C 20.034716,0.89108501 36.042969,-0.09695669 69.850227,1.4475121 M 0.816831,-0.75056702 C 22.863907,0.95642036 47.60582,0.9739593 67.782495,-0.04960426 M 68.464567,-1.7316094 C 70.017912,18.629032 66.891215,35.294509 70.410463,69.118926 M 68.969919,0.11463681 C 67.880001,23.32369 68.168649,46.127747 69.176287,68.239278 M 67.224769,68.51938 C 52.643892,69.060523 36.429841,70.543547 -1.051253,67.489142 m 68.901285,1.09102 C 42.925861,69.157212 17.108696,68.383951 0.02711604,69.441928 M 0.46546156,68.818291 C 0.52460552,45.582784 0.09108788,19.578016 0.93230367,-0.7694172 M -0.0679455,68.726302 C -0.12036011,49.756419 -0.61082756,31.687143 0.67412258,0.57125479" />
    </g>
    <g
       id="g1227"
       transform="matrix(0.26458333,0,0,0.26458333,36.330442,126.90305)">
      <path
         inkscape:connector-curvature="0"
         id="path1223"
         fill="#996666"
         stroke-width="0"
         stroke="none"
         d="M 0.82402796,0.65371122 67.81793,0.44692334 69.95997,67.386767 -0.23636305,67.04276" />
      <path
         inkscape:connector-curvature="0"
         id="path1225"
         fill="none"
         stroke-width="1"
         stroke="#000000"
         d="M 1.63704,1.5570505 C 21.007592,-1.4814451 40.640925,0.75770568 69.97095,0.85439802 M -0.75056702,-0.62043859 C 16.7291,0.07740774 32.667082,-1.3006635 68.473833,-0.44743179 M 66.791828,1.480747 c 2.22293,17.567613 1.397332,41.794899 2.327098,67.891714 M 68.638074,-0.36647557 C 68.129459,17.709596 67.467586,36.227697 68.239278,67.858362 M 68.51938,68.6436 C 47.217519,67.984312 27.022311,67.027238 -1.0342955,70.043681 M 68.580162,68.691508 C 49.986084,68.178551 29.72819,68.089113 0.9184905,68.978462 M 0.29485323,69.383928 C 1.2486366,45.03453 -1.0811161,21.62398 -0.7694172,-0.53776258 M 0.20286402,68.972733 C 0.55281698,42.228677 1.1981054,16.690384 0.57125479,-0.95990528" />
    </g>
    <g
       id="g1239"
       transform="matrix(0.26458333,0,0,0.26458333,57.320224,127.06)">
      <path
         inkscape:connector-curvature="0"
         id="path1235"
         fill="#a65959"
         stroke-width="0"
         stroke="none"
         d="M 0.65371122,-0.70550751 68.970361,1.4365326 67.386767,68.287074 -1.4806772,66.756091" />
      <path
         inkscape:connector-curvature="0"
         id="path1237"
         fill="none"
         stroke-width="1"
         stroke="#000000"
         d="M 1.5570505,0.38621714 C 14.595991,-1.1627026 32.343495,0.88663402 69.377836,-1.3532852 M -0.62043859,0.80865607 C 19.716517,1.3405093 37.417834,0.46471006 68.076006,0.0200339 m 1.928178,1.1179238 C 66.857317,14.40302 70.390293,28.776811 69.372461,67.715069 M 68.156962,-0.14224022 C 68.751555,17.235539 69.482232,35.795145 67.858362,68.68706 M 68.6436,68.89575 C 46.224497,70.377384 23.062663,67.487752 1.5202438,68.210436 M 68.691508,69.470717 C 51.218006,68.736325 33.706582,69.480798 0.45502455,69.013613 M 0.86049045,69.2578 C 0.26749768,51.513754 0.77282854,36.925434 -0.53776258,1.6626594 M 0.44929559,68.470983 C 0.00538672,54.611957 0.72068117,40.086064 -0.95990528,0.41201398" />
    </g>
    <g
       id="g1251"
       transform="matrix(0.26458333,0,0,0.26458333,78.522922,127.15363)">
      <path
         inkscape:connector-curvature="0"
         id="path1247"
         fill="#b24c4c"
         stroke-width="0"
         stroke="none"
         d="M -0.70550751,0.44692334 69.95997,-1.1366708 68.287074,67.04276 -1.7673462,68.955126" />
      <path
         inkscape:connector-curvature="0"
         id="path1249"
         fill="none"
         stroke-width="1"
         stroke="#000000"
         d="M 0.38621714,-0.9123615 C 25.646043,0.79331705 53.943247,0.32092574 67.170152,-0.43128102 M 0.80865607,0.63712842 C 26.980433,-0.31579694 52.258872,-0.02228594 68.543471,-0.94367279 M 69.661395,-1.6459507 C 68.242517,22.242356 68.525647,41.559686 67.715069,67.788688 M 68.381197,-0.07782735 C 67.797877,24.269327 68.317831,46.567879 68.68706,68.7639 m 0.20869,-0.334642 C 54.271203,67.513354 35.273999,70.084851 -0.31300191,67.608409 M 69.470717,68.639991 C 52.754828,68.665721 37.556674,69.09363 0.49017525,67.77293 m 0.24418756,1.17748 C -1.6964117,47.303959 -0.87043899,23.68211 1.6626594,-1.7666122 M -0.05245471,68.482266 C 0.45382427,49.106115 0.43224539,27.380642 0.41201398,0.32685561" />
    </g>
    <g
       id="g1263"
       transform="matrix(0.26458333,0,0,0.26458333,99.770292,126.84091)">
      <path
         inkscape:connector-curvature="0"
         id="path1259"
         fill="#bf4040"
         stroke-width="0"
         stroke="none"
         d="M 0.44692334,1.4365326 67.386767,-0.23636305 67.04276,66.756091 0.43168893,66.579728" />
      <path
         inkscape:connector-curvature="0"
         id="path1261"
         fill="none"
         stroke-width="1"
         stroke="#000000"
         d="M -0.9123615,-0.60182456 C 27.492601,1.3151874 53.186021,-1.4856099 68.092156,1.633662 M 0.63712842,0.826195 C 14.672945,-0.6037232 30.380344,-0.53408504 67.579765,-0.02943518 m -0.702278,0.3417943 C 70.917792,15.219729 69.87979,28.440111 67.788688,69.416401 M 68.44561,-0.80411318 C 68.925166,21.058403 67.607241,42.848747 68.7639,67.874103 m -0.334642,2.504671 C 46.929056,67.616703 28.957425,68.337996 -0.91502863,67.176627 M 68.639991,68.697456 c -21.035167,1.39358 -41.552989,0.965265 -69.39049891,0.05871 m 1.17748072,-1.82812 C 0.63748486,46.186771 -0.83258139,27.051599 -1.7666122,-0.135891 m 1.72544033,69.252162 C 0.3662498,47.147567 -1.2677781,25.041201 0.32685561,-0.35275376" />
    </g>
    <g
       id="g1275"
       transform="matrix(0.26458333,0,0,0.26458333,120.9651,127.14606)">
      <path
         inkscape:connector-curvature="0"
         id="path1271"
         fill="#cc3333"
         stroke-width="0"
         stroke="none"
         d="M 1.4365326,-1.1366708 68.287074,-1.4806772 66.756091,68.955126 -1.9437094,67.72854" />
      <path
         inkscape:connector-curvature="0"
         id="path1273"
         fill="none"
         stroke-width="1"
         stroke="#000000"
         d="M -0.60182456,1.3267893 C 27.339266,1.1669887 50.430223,-0.11869029 70.1571,-1.501134 M 0.826195,-0.74094279 C 16.255968,-0.88401409 32.631179,-1.3802551 68.494002,-0.86580472 M 68.835797,1.8870252 C 69.50881,26.479348 68.104953,50.5259 69.416401,68.752711 M 67.719324,0.65284987 C 68.14181,17.38074 68.589592,36.332092 67.874103,68.521409 m 2.504671,-1.049225 c -23.858361,2.53923 -44.105797,0.103957 -71.7255844,1.164703 M 68.697456,68.550554 C 47.733218,69.058329 25.596192,67.852796 0.23273078,68.670864 M -1.5953899,69.455741 C -1.0210225,44.480456 1.4110541,19.746386 -0.135891,0.40572805 M 0.59283367,69.19756 C 0.60719856,43.927773 0.44795775,21.578775 -0.35275376,0.22346167" />
    </g>
    <g
       id="g1287"
       transform="matrix(0.26458333,0,0,0.26458333,142.04887,127.03965)">
      <path
         inkscape:connector-curvature="0"
         id="path1283"
         fill="#d92626"
         stroke-width="0"
         stroke="none"
         d="M -1.1366708,-0.23636305 67.04276,-1.7673462 68.955126,66.579728 -0.79489723,70.039052" />
      <path
         inkscape:connector-curvature="0"
         id="path1285"
         fill="none"
         stroke-width="1"
         stroke="#000000"
         d="M 1.3267893,1.4475121 C 22.734676,-1.1470898 43.329274,1.8398574 67.022303,-1.2408772 M -0.74094279,-0.04960426 C 25.650789,-0.54610332 51.252768,-0.5955724 67.657633,0.7403735 m 2.75283,-0.14488451 C 68.80853,23.647502 67.224757,49.804703 68.752711,67.790486 M 69.176287,-0.28415954 C 67.805033,19.745975 68.71057,38.515371 68.521409,68.583519 M 67.472184,67.489142 C 48.211043,68.846106 23.943132,67.812297 0.11344982,68.859579 M 68.550554,69.441928 C 41.930348,69.132856 13.676701,68.875411 0.14742662,68.953683 M 0.93230367,67.75402 C -0.6840508,47.113012 -1.9129004,22.241378 0.40572805,0.89859118 M 0.67412258,69.094692 C -0.93169291,48.737858 0.35506799,27.775497 0.22346167,0.71826628" />
    </g>
    <g
       id="g1299"
       transform="matrix(0.26458333,0,0,0.26458333,163.22951,126.88567)">
      <path
         inkscape:connector-curvature="0"
         id="path1295"
         fill="#e51919"
         stroke-width="0"
         stroke="none"
         d="M -0.23636305,-1.4806772 66.756091,0.43168893 66.579728,67.72854 1.5156143,68.743068" />
      <path
         inkscape:connector-curvature="0"
         id="path1297"
         fill="none"
         stroke-width="1"
         stroke="#000000"
         d="M 1.4475121,0.85439802 C 16.077839,-0.88586185 36.49591,-1.9557149 67.28256,1.6173121 M -0.04960426,-0.44743179 C 24.942888,-0.43595332 49.816273,-0.35808525 69.263811,0.56897883 M 69.118926,0.84902305 C 67.822089,14.182971 69.52342,30.064716 67.790486,68.238957 M 68.239278,-0.66507502 C 68.136054,20.264194 67.323097,40.045434 68.583519,68.709594 m -1.094377,1.334087 C 47.97608,67.248232 26.707916,68.27671 0.33614167,70.417996 M 69.441928,68.978462 C 47.657914,67.79151 26.044771,68.689445 0.43024522,68.890619 M -0.7694172,67.985675 C 2.2092674,44.736912 0.41071702,24.889339 0.89859118,-0.10490941 M 0.57125479,67.563532 C 0.00578397,48.575386 -0.75898377,28.197084 0.71826628,-0.5683354" />
    </g>
    <g
       id="g1311"
       transform="matrix(0.26458333,0,0,0.26458333,184.15639,127.02899)">
      <path
         inkscape:connector-curvature="0"
         id="path1307"
         fill="#f20d0d"
         stroke-width="0"
         stroke="none"
         d="M -1.4806772,-1.7673462 68.955126,-1.9437094 67.72854,70.039052 0.21963027,70.295989" />
      <path
         inkscape:connector-curvature="0"
         id="path1309"
         fill="none"
         stroke-width="1"
         stroke="#000000"
         d="M 0.85439802,-1.3532852 C 18.063796,1.1377195 35.48902,-1.7368197 70.14075,1.2742568 M -0.44743179,0.0200339 C 25.274731,0.00455536 51.571002,0.77436404 69.092416,-0.82297536 m 0.280045,0.0146073 C 68.435215,22.520191 69.399238,42.521503 68.238957,68.367783 M 67.858362,0.16362289 C 69.211255,14.397637 68.968764,30.154024 68.709594,68.476348 m 1.334087,-0.265912 C 40.694676,66.82226 14.809421,68.505212 1.8945585,68.756545 M 68.978462,69.013613 C 46.023467,69.38555 25.171938,69.583064 0.3671814,68.736924 m -0.90494398,1.449173 C -2.0860354,53.296595 0.08630479,39.240126 -0.10490941,-0.08234373 M -0.95990528,68.935451 C -0.13507636,43.551352 -0.2384703,20.003041 -0.5683354,-0.11818152" />
    </g>
    <g
       id="g1323"
       transform="matrix(0.26458333,0,0,0.26458333,205.37874,126.96152)">
      <path
         inkscape:connector-curvature="0"
         id="path1319"
         fill="#ff0000"
         stroke-width="0"
         stroke="none"
         d="M -1.7673462,0.43168893 66.579728,-0.79489723 70.039052,68.743068 1.7725512,67.341665" />
      <path
         inkscape:connector-curvature="0"
         id="path1321"
         fill="none"
         stroke-width="4"
         stroke="#000000"
         d="M -1.3532852,-0.43128102 C 26.736502,-1.7938655 48.964802,1.3245807 69.797694,1.65239 M 0.0200339,-0.94367279 C 15.450401,-0.55920908 31.700047,0.87557447 67.700462,0.15617956 m 0.01461,-0.89092935 C 69.620426,27.251578 67.994511,53.760128 68.367783,66.915211 M 68.68706,0.2404622 C 67.679388,25.028554 68.388803,50.247322 68.476348,69.451106 M 68.210436,67.608409 C 50.221369,69.157749 34.949064,70.938858 0.23310783,68.871474 M 69.013613,67.77293 C 48.013329,68.982663 27.468003,69.202417 0.21348641,67.725743 M 1.6626594,66.756825 C 0.12772456,45.177902 1.1622067,20.916 -0.08234373,1.1856673 M 0.41201398,68.850293 C -0.74419718,43.570548 0.32682286,17.6024 -0.11818152,-0.74033858" />
    </g>
  </g>
</svg>
