<svg xmlns="http://www.w3.org/2000/svg" width="32" height="32" viewBox="0 0 32 32"><path fill="currentColor" d="M3.563 31.959c-0.469-0.119-0.712-0.312-1.961-1.557-1.488-1.484-1.583-1.629-1.577-2.403 0-0.86-0.261-0.552 4.491-5.315 4.8-4.811 4.553-4.601 5.419-4.599 0.403 0 0.504 0.021 0.827 0.187l0.369 0.187 2.325-2.325-0.291-0.457c-0.567-0.883-1.1-2.172-1.341-3.239-0.157-0.671-0.247-1.441-0.247-2.232 0-2.412 0.836-4.628 2.235-6.375l-0.016 0.020c3.32-4.16 9.279-5.083 13.68-2.117 2.416 1.624 3.987 4.132 4.437 7.085 0.093 0.623 0.093 2.105 0 2.765-0.317 2.318-1.381 4.343-2.938 5.868l-0.002 0.002c-0.729 0.756-1.586 1.382-2.538 1.845l-0.053 0.023c-1.279 0.644-2.367 0.947-3.841 1.071-2.097 0.175-4.427-0.407-6.208-1.551l-0.457-0.291-2.325 2.325 0.187 0.373c0.167 0.321 0.187 0.421 0.187 0.823 0.004 0.868 0.208 0.623-4.568 5.399-3.681 3.675-4.248 4.219-4.531 4.348-0.361 0.167-0.92 0.228-1.261 0.14zM23.313 18.6c2.72-0.52 4.946-2.267 6.115-4.63l0.022-0.050c1.855-3.865 0.607-8.408-2.969-10.811-0.851-0.573-2.039-1.059-3.156-1.283-0.775-0.156-2.412-0.139-3.219 0.033-1.244 0.264-2.341 0.758-3.296 1.437l0.027-0.018c-0.592 0.42-1.569 1.397-1.983 1.983-0.993 1.374-1.588 3.093-1.588 4.951 0 2.145 0.793 4.105 2.103 5.602l-0.008-0.010c1.306 1.498 3.111 2.532 5.154 2.842l0.047 0.006c0.679 0.104 2.056 0.077 2.751-0.052zM18.329 28.435c-1.745-0.472-2.721-0.769-3.692-1.079l0.764 0.211c-0.033-0.037 1.609-5.861 1.676-5.932 0.031-0.035 5.656 1.536 5.885 1.648 0.083 0.035-0.004 0.384-0.7 2.803 0.656-2.763 0.366-1.767 0.079-0.77l-0.925 3.752c-0.033 0.116-0.092 0.208-0.129 0.208-0.037-0.004-1.371-0.383-2.957-0.84zM22.212 29.133c0-0.071 1.636-5.777 1.661-5.796 0.063-0.045 5.765-1.64 5.788-1.615 0.025 0.025-1.599 5.783-1.64 5.813-0.027 0.025-5.501 1.588-5.679 1.624-0.072 0.015-0.131 0-0.131-0.027zM12.739 26.585c1.128-1.136 2.132-2.169 2.232-2.304 0.228-0.291 0.54-0.976 0.629-1.353 0.035-0.157 0.071-0.469 0.077-0.696l0.015-0.409 0.243-0.068c0.137-0.037 0.257-0.059 0.269-0.045 0.031 0.033-1.609 5.761-1.661 5.813-0.027 0.021-0.903 0.284-1.952 0.581l-1.9 0.54zM23.791 22.505c-0.028-0.068-0.055-0.151-0.076-0.237l-0.003-0.013-0.059-0.208 0.208-0.037c1.785-0.303 3.701-1.141 5.211-2.284 0.213-0.167 0.336-0.228 0.353-0.179 0.072 0.22 0.363 1.267 0.353 1.279-0.045 0.045-5.973 1.709-5.988 1.679zM3.68 20.772c-0.067-0.052-1.572-5.155-1.685-5.72-0.021-0.112 0.195-0.059 2.899 0.715 2.828 0.805 2.923 0.839 2.963 0.987 0.037 0.131 0.015 0.172-0.167 0.297-0.112 0.079-1.025 0.965-2.031 1.972-0.604 0.612-1.208 1.207-1.821 1.792l-0.033 0.031c-0.021 0-0.075-0.033-0.125-0.073zM4.775 14.935c-1.584-0.457-2.885-0.831-2.889-0.835-0.021-0.016 1.681-5.911 1.713-5.947 0.029-0.029 5.896 1.615 5.959 1.669 0.012 0.012-0.359 1.356-0.824 2.985-0.768 2.693-0.857 2.965-0.964 2.96-0.067-0.004-1.412-0.38-2.995-0.833zM8.72 15.652c0.016-0.041 0.283-0.964 0.592-2.045l0.56-1.968 0.075 0.428c0.124 0.741 0.353 1.584 0.619 2.321 0.141 0.395 0.249 0.719 0.241 0.727-0.011 0.008-0.443 0.135-0.959 0.283-0.519 0.145-0.988 0.28-1.048 0.299-0.077 0.021-0.1 0.008-0.080-0.044zM6.54 8.149c-1.583-0.452-2.889-0.847-2.907-0.872-0.053-0.083-1.661-5.761-1.64-5.784 0.035-0.033 5.747 1.605 5.801 1.661 0.063 0.068 1.707 5.839 1.661 5.835zM9.404 5.865l-0.692-2.408-0.104-0.373 2.257-0.644c1.245-0.353 2.299-0.66 2.347-0.677 0.045-0.021-0.111 0.187-0.347 0.448-1.194 1.312-2.097 2.911-2.592 4.681l-0.020 0.082c-0.066 0.204-0.127 0.456-0.171 0.714l-0.005 0.034c0 0.391-0.153-0.033-0.673-1.856z"></path></svg>
