<svg version="1.1" xmlns="http://www.w3.org/2000/svg" width="32" height="32" viewBox="0 0 32 32"><path fill="currentColor" d="M28.4 19.44l-3.267-12.213c0 0-0.2-0.787-0.96-0.44l-7.467 3.467 1.147 4.267 1.453 5.44 0.013 0.080c0.067 0.627-0.547 1.053-0.547 1.053l-2.507 1.16 0.667 2.52 0.053 0.133c0.093 0.227 0.373 0.8 1.080 1.213l9.267 5.693c0 0 0.907 0.547 0.693-0.227l-2.64-9.867 2.48-1.147c0 0 0.747-0.347 0.533-1.133zM18.347 19.56l-0.013-0.080-1.507-5.627-0.88-3.267-0.893-3.32v-0.053c0 0-0.213-0.787-1.12-1.333l-9.267-5.693c0 0-0.907-0.547-0.693 0.227l2.653 9.893-2.493 1.16c0 0-0.747 0.347-0.533 1.133l3.267 12.213c0 0 0.213 0.787 0.96 0.44l9.96-4.64c0 0 0.693-0.32 0.56-1.053z"/></svg>
