<svg xmlns="http://www.w3.org/2000/svg" width="32" height="32" viewBox="0 0 32 32"><path fill="currentColor" d="m14.573 2.7244c-0.72947 0.48809-4.2941 2.8538-7.9187 5.2609-3.6273 2.4058-6.5905 4.3954-6.5905 4.4194 0 0.02535 0.18138 0.14668 0.40673 0.2667 0.2227 0.12802 3.8007 2.111 7.9548 4.4141l7.5427 4.1914 0.19204-0.09868c0.10936-0.05335 2.8925-1.6429 6.1904-3.5233l5.9917-3.4246 0.03601 10.598h3.558v-12.404l-4.6142-3.0939c-6.2198-4.1661-11.191-7.4493-11.314-7.476-0.06001-0.010658-0.70278 0.38272-1.4349 0.8695zm-7.4347 19.454 0.018659 2.6738 8.8282 5.2929 4.4501-2.6671 4.4434-2.6738v-2.6431c0-1.4563-0.01735-2.6445-0.03601-2.6445s-1.7577 1.0428-3.8673 2.3218l-4.4088 2.6618-0.57476 0.3414-1.7603-1.0548c-5.02-2.8874-6.4504-3.7607-7.8779-4.6382l3.4958 1.9991-2.6738-1.6136c-0.032006-0.01067-0.042664 1.1776-0.036006 2.6445z"/></svg>
