<svg version="1.1" xmlns="http://www.w3.org/2000/svg" width="32" height="32" viewBox="0 0 32 32"><path fill="currentColor" d="M16 0c-8.837 0-16 7.163-16 16s7.163 16 16 16 16-7.163 16-16-7.163-16-16-16zM9.825 5.837c0.7 0 1.263 0.575 1.263 1.263s-0.563 1.263-1.263 1.263c-0.696-0.002-1.26-0.566-1.263-1.262v-0c0-0.7 0.563-1.263 1.263-1.263zM8.863 9.888h1.925v13.388h-1.925zM13.612 9.888h5.2c4.949 0 7.125 3.537 7.125 6.7 0 3.437-2.688 6.7-7.1 6.7h-5.225zM15.537 11.625v9.925h3.063c4.363 0 5.363-3.312 5.363-4.963 0-2.688-1.712-4.963-5.463-4.963z"/></svg>
